<svg width="25" height="24" viewBox="0 0 25 24" fill="none" xmlns="http://www.w3.org/2000/svg">
<path fill-rule="evenodd" clip-rule="evenodd" d="M11.7541 0.292893C12.1446 -0.0976311 12.7778 -0.0976311 13.1683 0.292893L18.4183 5.54289C18.8088 5.93342 18.8088 6.56658 18.4183 6.95711C18.0278 7.34763 17.3946 7.34763 17.0041 6.95711L12.4612 2.41421L7.91829 6.95711C7.52776 7.34763 6.8946 7.34763 6.50408 6.95711C6.11355 6.56658 6.11355 5.93342 6.50408 5.54289L11.7541 0.292893Z" fill="white"/>
<path fill-rule="evenodd" clip-rule="evenodd" d="M12.4612 1.49012e-08C13.0135 1.49012e-08 13.4612 0.447715 13.4612 1V15C13.4612 15.5523 13.0135 16 12.4612 16C11.9089 16 11.4612 15.5523 11.4612 15V1C11.4612 0.447715 11.9089 1.49012e-08 12.4612 1.49012e-08Z" fill="white"/>
<path fill-rule="evenodd" clip-rule="evenodd" d="M1.46118 14C2.01347 14 2.46118 14.4477 2.46118 15V22H22.4612V15C22.4612 14.4477 22.9089 14 23.4612 14C24.0135 14 24.4612 14.4477 24.4612 15V22C24.4612 22.5304 24.2505 23.0391 23.8754 23.4142C23.5003 23.7893 22.9916 24 22.4612 24H2.46118C1.93075 24 1.42204 23.7893 1.04697 23.4142C0.671895 23.0391 0.461182 22.5304 0.461182 22V15C0.461182 14.4477 0.908897 14 1.46118 14Z" fill="white"/>
</svg>
